<svg width="375" height="113" viewBox="0 0 375 113" fill="none" xmlns="http://www.w3.org/2000/svg">
<path fill-rule="evenodd" clip-rule="evenodd" d="M375 90.4L359.375 86.6333C343.75 82.8667 312.5 75.3333 281.25 60.2667C250 45.2 218.75 22.6 187.5 20.7167C156.25 18.8333 125 37.6667 93.75 37.6667C62.5 37.6667 31.25 18.8333 15.625 9.41667L0 0V113H15.625C31.25 113 62.5 113 93.75 113C125 113 156.25 113 187.5 113C218.75 113 250 113 281.25 113C312.5 113 343.75 113 359.375 113H375V90.4Z" fill="#4C956C"/>
</svg>
